<?xml version="1.0" encoding="utf-8"?>
<!-- Generator: Adobe Illustrator 22.1.0, SVG Export Plug-In . SVG Version: 6.00 Build 0)  -->
<svg version="1.1" id="Layer_1" xmlns="http://www.w3.org/2000/svg" xmlns:xlink="http://www.w3.org/1999/xlink" x="0px" y="0px"
	 viewBox="0 0 288 144" style="enable-background:new 0 0 288 144;" xml:space="preserve">
<style type="text/css">
	.st0{fill:#855914;}
	.st1{fill:#0A3542;}
</style>
<g>
	<path class="st0" d="M37.5,92.1c-0.4-0.3-0.9-0.8-1.5-1c-0.6-0.3-1.3-0.4-2-0.4c-2.6,0-4.6,2.1-4.6,4.6c0,3,2.5,4.5,4.6,4.5
		c0.8,0,1.5-0.2,2.1-0.5c0.6-0.3,1.1-0.7,1.3-0.9v1.5c-1.3,0.9-2.6,1.1-3.4,1.1c-3.4,0-5.9-2.5-5.9-5.7c0-3.3,2.5-5.8,5.9-5.8
		c0.7,0,2,0.1,3.4,1.1V92.1z"/>
	<path class="st0" d="M44.3,95.2c0-3.3,2.6-5.7,5.9-5.7c3.3,0,5.9,2.4,5.9,5.7c0,3.3-2.6,5.7-5.9,5.7C46.9,101,44.3,98.5,44.3,95.2z
		 M45.6,95.2c0,2.5,2.1,4.6,4.6,4.6c2.6,0,4.6-2,4.6-4.6s-2.1-4.6-4.6-4.6C47.6,90.6,45.6,92.7,45.6,95.2z"/>
	<path class="st0" d="M63.5,100.8V89.2l8.9,9.1v-8.6h1.3v11.6l-8.9-9.1v8.6H63.5z"/>
	<path class="st0" d="M86.8,91.9c-0.2-0.3-0.4-0.6-0.7-0.8c-0.2-0.2-0.6-0.4-1.3-0.4c-1.1,0-1.9,0.7-1.9,1.7c0,0.4,0.1,0.7,0.4,1
		c0.3,0.3,0.8,0.5,1.2,0.7l1.1,0.5c0.7,0.3,1.3,0.6,1.8,1c0.6,0.6,0.8,1.2,0.8,2c0,2-1.6,3.4-3.6,3.4c-0.8,0-1.7-0.2-2.5-0.9
		c-0.6-0.5-0.9-1.3-1.1-2l1.2-0.3c0.1,0.6,0.4,1.1,0.7,1.4c0.5,0.5,1.1,0.6,1.6,0.6c1.6,0,2.3-1.1,2.3-2.2c0-0.5-0.2-0.9-0.6-1.3
		C86,96,85.6,95.8,85,95.5l-1-0.5c-0.4-0.2-1-0.4-1.5-0.9c-0.5-0.5-0.8-1-0.8-1.8c0-1.7,1.3-2.9,3.2-2.9c0.7,0,1.3,0.1,1.8,0.5
		c0.5,0.3,0.9,0.7,1.1,1.2L86.8,91.9z"/>
	<path class="st0" d="M96.9,96.5c0,0.9,0,1.9,0.9,2.7c0.5,0.4,1.2,0.6,1.9,0.6c0.6,0,1.4-0.2,1.9-0.6c0.9-0.7,0.9-1.8,0.9-2.7v-6.8
		h1.3v7.1c0,0.9-0.1,1.8-0.7,2.7c-0.7,0.9-1.9,1.5-3.3,1.5c-1.4,0-2.6-0.6-3.3-1.5c-0.6-0.8-0.7-1.7-0.7-2.7v-7.1h1.3V96.5z"/>
	<path class="st0" d="M113,89.7v9.9h3.1v1.2h-4.4V89.7H113z"/>
	<path class="st0" d="M125.4,90.8v9.9h-1.3v-9.9h-2.8v-1.2h6.8v1.2H125.4z"/>
	<path class="st0" d="M136.3,89.7v11.1H135V89.7H136.3z"/>
	<path class="st0" d="M144.3,100.8V89.2l8.9,9.1v-8.6h1.3v11.6l-8.9-9.1v8.6H144.3z"/>
	<path class="st0" d="M168.3,95.2h4.7v0.3c0,1.2-0.4,2.6-1.1,3.5c-0.3,0.4-1.6,2-4.2,2c-3.4,0-5.9-2.5-5.9-5.7s2.5-5.7,5.9-5.7
		c1.1,0,2.4,0.3,3.5,1.1c0.5,0.4,1,0.9,1.3,1.3l-0.9,0.8c-0.3-0.4-0.7-0.8-1.1-1.1c-0.5-0.4-1.4-0.9-2.8-0.9c-2.7,0-4.7,2-4.7,4.6
		c0,3,2.5,4.6,4.6,4.6c1.5,0,2.8-0.7,3.5-1.9c0.2-0.3,0.4-0.9,0.5-1.6h-3.4V95.2z"/>
	<path class="st0" d="M195.5,95.2h4.7v0.3c0,1.2-0.4,2.6-1.1,3.5c-0.3,0.4-1.6,2-4.2,2c-3.4,0-5.9-2.5-5.9-5.7s2.5-5.7,5.9-5.7
		c1.1,0,2.4,0.3,3.5,1.1c0.5,0.4,1,0.9,1.3,1.3l-0.9,0.8c-0.3-0.4-0.7-0.8-1.1-1.1c-0.5-0.4-1.4-0.9-2.8-0.9c-2.7,0-4.7,2-4.7,4.6
		c0,3,2.5,4.6,4.6,4.6c1.5,0,2.8-0.7,3.5-1.9c0.2-0.3,0.4-0.9,0.5-1.6h-3.4V95.2z"/>
	<path class="st0" d="M209.4,89.7c0.8,0,1.9,0,2.8,0.6c0.7,0.4,1.2,1.3,1.2,2.5c0,1.7-1.1,2.9-2.9,3.1l3.6,5h-1.5l-3.5-4.9h-0.3v4.9
		h-1.3V89.7H209.4z M208.9,94.8h0.8c1.6,0,2.5-0.7,2.5-2c0-0.6-0.2-1.2-0.9-1.6c-0.5-0.3-1.1-0.3-1.6-0.3h-0.8V94.8z"/>
	<path class="st0" d="M220.7,95.2c0-3.3,2.6-5.7,5.9-5.7c3.3,0,5.9,2.4,5.9,5.7c0,3.3-2.6,5.7-5.9,5.7S220.7,98.5,220.7,95.2z
		 M222,95.2c0,2.5,2.1,4.6,4.6,4.6c2.6,0,4.6-2,4.6-4.6s-2.1-4.6-4.6-4.6C224,90.6,222,92.7,222,95.2z"/>
	<path class="st0" d="M241.2,96.5c0,0.9,0,1.9,0.9,2.7c0.5,0.4,1.2,0.6,1.9,0.6c0.6,0,1.4-0.2,1.9-0.6c0.9-0.7,0.9-1.8,0.9-2.7v-6.8
		h1.3v7.1c0,0.9-0.1,1.8-0.7,2.7c-0.7,0.9-1.9,1.5-3.3,1.5c-1.4,0-2.6-0.6-3.3-1.5c-0.6-0.8-0.7-1.7-0.7-2.7v-7.1h1.3V96.5z"/>
	<path class="st0" d="M258.1,89.7c1.1,0,2.1,0.1,2.9,0.8c0.8,0.7,1,1.7,1,2.4c0,1.6-1,3.1-3.6,3.1h-1.1v4.8H256V89.7H258.1z
		 M257.3,94.8h1c1.5,0,2.4-0.7,2.4-2c0-1.8-1.7-1.9-2.5-1.9h-0.9V94.8z"/>
</g>
<g>
	<g>
		<path class="st1" d="M45.5,61.7c0,2.3-0.4,4.5-1.2,6.5c-0.8,2.1-2,3.9-3.6,5.5c-1.6,1.6-3.5,2.8-5.8,3.7c-2.3,0.9-4.8,1.4-7.7,1.4
			c-0.7,0-1.5,0-2.2-0.1c-0.7-0.1-1.4-0.2-2.1-0.4v4.5c0,0.3-0.1,0.7-0.4,1.1c-0.2,0.4-0.5,0.8-0.9,1.3c-0.4,0.5-0.8,1-1.3,1.5
			c-0.5,0.5-1,1.1-1.5,1.7c-0.5,0.6-1,1.2-1.5,1.9c-0.5,0.7-0.9,1.4-1.3,2.1V50.8c0-0.3-0.1-0.6-0.2-0.9c-0.1-0.3-0.3-0.6-0.6-0.9
			c-0.3-0.3-0.7-0.5-1.1-0.7c-0.5-0.2-1.1-0.3-1.9-0.3v-0.8h10.6c0.9,0,1.9,0,3,0.1c1.1,0.1,2.3,0.2,3.5,0.3
			c1.2,0.2,2.5,0.4,3.7,0.7c1.3,0.3,2.5,0.7,3.7,1.2c1.2,0.5,2.3,1.1,3.4,1.8c1.1,0.7,2,1.6,2.8,2.5c0.8,1,1.4,2.1,1.9,3.4
			C45.3,58.6,45.5,60,45.5,61.7z M38.5,63.3c0-1.9-0.3-3.6-0.7-5.1c-0.5-1.4-1.2-2.7-2-3.7c-0.8-1.1-1.8-1.9-2.9-2.6
			c-1.1-0.7-2.2-1.3-3.3-1.7c-1.1-0.4-2.3-0.8-3.4-1c-1.1-0.2-2.2-0.3-3.2-0.4v27.5c0.8,0.4,1.7,0.7,2.6,0.9
			c0.9,0.1,1.8,0.2,2.7,0.2c1.3,0,2.5-0.2,3.6-0.6c1-0.4,1.9-1,2.7-1.7c0.8-0.7,1.4-1.6,1.9-2.5c0.5-0.9,0.9-1.9,1.2-3
			c0.3-1,0.5-2.1,0.7-3.1C38.4,65.3,38.5,64.2,38.5,63.3z"/>
		<path class="st1" d="M75.3,54c-0.4-0.9-1-1.7-1.6-2.4c-0.7-0.7-1.4-1.3-2.2-1.8c-0.8-0.5-1.7-0.9-2.6-1.1
			c-0.9-0.2-1.8-0.4-2.7-0.4c-1,0-1.9,0.2-2.8,0.5c-0.9,0.4-1.7,0.8-2.4,1.4c-0.7,0.6-1.4,1.3-2,2.2c-0.6,0.8-1.2,1.7-1.6,2.7
			c-0.5,1-0.8,2-1.1,3c-0.3,1.1-0.5,2.1-0.6,3.2h18.3c-0.3,0.6-0.5,1.2-0.7,1.9c-0.2,0.7-0.3,1.3-0.3,1.9c-0.1,0.7-0.1,1.3-0.2,1.9
			l-0.7,0.1c-0.2-0.9-0.4-1.7-0.7-2.3c-0.3-0.6-0.7-1.1-1.2-1.4c-0.5-0.3-1.3-0.6-2.2-0.7c-0.9-0.1-2.1-0.2-3.5-0.2h-8.9v0.9
			c0,1.2,0.1,2.3,0.4,3.4c0.3,1.1,0.7,2.2,1.2,3.2c0.5,1,1.1,1.9,1.8,2.8c0.7,0.8,1.5,1.6,2.4,2.2c0.9,0.6,1.9,1.1,3,1.4
			c1.1,0.3,2.2,0.5,3.4,0.5c1.1,0,2-0.1,2.9-0.3c0.8-0.2,1.5-0.5,2.2-0.8c0.6-0.3,1.1-0.7,1.5-1c0.4-0.4,0.8-0.7,1-1.1
			c0.3-0.3,0.5-0.6,0.6-0.9c0.1-0.3,0.2-0.4,0.3-0.5l-0.3,3c-0.3,0.5-0.8,0.9-1.4,1.3c-0.6,0.4-1.4,0.8-2.2,1.1
			c-0.9,0.3-1.8,0.6-2.9,0.8c-1.1,0.2-2.2,0.3-3.5,0.3c-2.4,0-4.6-0.4-6.8-1.1c-2.1-0.7-4-1.7-5.6-3s-2.9-2.8-3.8-4.7
			c-1-1.8-1.4-3.9-1.5-6.1c0-2.3,0.4-4.4,1.2-6.2c0.8-1.9,1.8-3.5,3.1-4.8c1.3-1.4,2.8-2.5,4.5-3.4c1.7-0.9,3.5-1.6,5.4-2
			c1-0.2,2.2-0.4,3.5-0.5c1.3-0.1,2.6-0.1,4-0.1c1.3,0,2.5,0,3.6,0c1.1,0,2.1,0,2.9,0c-0.2,0.7-0.3,1.3-0.3,1.8
			c-0.1,0.5-0.1,1-0.1,1.5c0,0.6,0,1.2,0.2,1.8c0.1,0.6,0.2,1.1,0.4,1.8L75.3,54z"/>
		<path class="st1" d="M101.9,77.9H87.5v-0.8c0.8,0,1.4-0.1,1.9-0.2c0.5-0.2,0.9-0.4,1.1-0.7c0.3-0.3,0.5-0.6,0.6-0.9
			c0.1-0.4,0.1-0.7,0.1-1.1V48.8h-2.7c-0.8,0-1.6,0.1-2.4,0.2c-0.8,0.1-1.7,0.4-2.5,0.7c-0.8,0.4-1.6,0.8-2.4,1.4
			c-0.8,0.6-1.5,1.4-2.1,2.4l-0.9-0.1c0.4-0.6,0.7-1.3,0.9-2c0.2-0.7,0.4-1.4,0.5-2c0.1-0.7,0.2-1.5,0.2-2.2h29.9
			c-0.2,0.4-0.4,0.8-0.5,1.2c-0.1,0.4-0.2,0.9-0.3,1.3c-0.1,0.4-0.1,0.8-0.1,1.2c0,0.4,0,0.7,0,1c0,0.2,0,0.3,0,0.4
			c0,0.1,0,0.2,0,0.3c0,0.1,0,0.2,0,0.3l-0.8,0.1c-0.1-0.6-0.2-1.2-0.5-1.6c-0.3-0.5-0.7-0.8-1.1-1.1s-0.9-0.6-1.5-0.7
			c-0.5-0.2-1.1-0.3-1.6-0.4s-1-0.2-1.5-0.2c-0.5,0-0.8,0-1.1,0h-2.7v25.3c0,0.3,0,0.6,0.1,0.9c0.1,0.3,0.3,0.7,0.5,1
			c0.3,0.3,0.7,0.6,1.1,0.8c0.5,0.2,1.1,0.3,2,0.3V77.9z"/>
		<path class="st1" d="M138.4,54c-0.4-0.9-1-1.7-1.6-2.4c-0.7-0.7-1.4-1.3-2.2-1.8c-0.8-0.5-1.7-0.9-2.6-1.1
			c-0.9-0.2-1.8-0.4-2.7-0.4c-1,0-1.9,0.2-2.8,0.5c-0.9,0.4-1.7,0.8-2.4,1.4c-0.7,0.6-1.4,1.3-2,2.2c-0.6,0.8-1.2,1.7-1.6,2.7
			c-0.5,1-0.8,2-1.1,3c-0.3,1.1-0.5,2.1-0.6,3.2h18.3c-0.3,0.6-0.5,1.2-0.7,1.9c-0.2,0.7-0.3,1.3-0.3,1.9c-0.1,0.7-0.1,1.3-0.2,1.9
			l-0.7,0.1c-0.2-0.9-0.4-1.7-0.7-2.3c-0.3-0.6-0.7-1.1-1.2-1.4c-0.5-0.3-1.3-0.6-2.2-0.7c-0.9-0.1-2.1-0.2-3.5-0.2h-8.9v0.9
			c0,1.2,0.1,2.3,0.4,3.4c0.3,1.1,0.7,2.2,1.2,3.2c0.5,1,1.1,1.9,1.8,2.8c0.7,0.8,1.5,1.6,2.4,2.2c0.9,0.6,1.9,1.1,3,1.4
			c1.1,0.3,2.2,0.5,3.4,0.5c1.1,0,2-0.1,2.9-0.3c0.8-0.2,1.5-0.5,2.2-0.8c0.6-0.3,1.1-0.7,1.5-1c0.4-0.4,0.8-0.7,1-1.1
			c0.3-0.3,0.5-0.6,0.6-0.9c0.1-0.3,0.2-0.4,0.3-0.5l-0.3,3c-0.3,0.5-0.8,0.9-1.4,1.3c-0.6,0.4-1.4,0.8-2.2,1.1
			c-0.9,0.3-1.8,0.6-2.9,0.8c-1.1,0.2-2.2,0.3-3.5,0.3c-2.4,0-4.6-0.4-6.8-1.1c-2.1-0.7-4-1.7-5.6-3s-2.9-2.8-3.8-4.7
			c-1-1.8-1.4-3.9-1.5-6.1c0-2.3,0.4-4.4,1.2-6.2c0.8-1.9,1.8-3.5,3.1-4.8c1.3-1.4,2.8-2.5,4.5-3.4c1.7-0.9,3.5-1.6,5.4-2
			c1-0.2,2.2-0.4,3.5-0.5c1.3-0.1,2.6-0.1,4-0.1c1.3,0,2.5,0,3.6,0c1.1,0,2.1,0,2.9,0c-0.2,0.7-0.3,1.3-0.3,1.8
			c-0.1,0.5-0.1,1-0.1,1.5c0,0.6,0,1.2,0.2,1.8c0.1,0.6,0.2,1.1,0.4,1.8L138.4,54z"/>
		<path class="st1" d="M174.9,77.6c-1.3,0.5-2.5,0.9-3.5,1.1c-1,0.2-2,0.3-2.8,0.3c-1,0-2-0.3-3-0.8c-1-0.5-1.9-1.2-2.9-2
			s-1.8-1.7-2.6-2.7c-0.8-1-1.5-2-2.2-2.9s-1.2-1.8-1.6-2.6c-0.4-0.8-0.8-1.4-1-1.8c1.8-0.3,3.4-0.8,4.9-1.6
			c0.6-0.3,1.2-0.7,1.8-1.2c0.6-0.5,1.1-1,1.6-1.7c0.5-0.6,0.8-1.4,1.1-2.2c0.3-0.8,0.4-1.8,0.4-2.8c0-1-0.1-1.8-0.4-2.6
			c-0.2-0.8-0.6-1.5-1-2.1c-0.4-0.6-0.9-1.1-1.4-1.6c-0.5-0.4-1.1-0.8-1.6-1.1c-0.6-0.3-1.1-0.5-1.7-0.6s-1.1-0.2-1.6-0.2
			c-0.8,0-1.4,0.1-1.9,0.2c-0.5,0.2-0.9,0.4-1.2,0.6c-0.3,0.3-0.5,0.6-0.6,0.9c-0.1,0.4-0.2,0.7-0.2,1.1v22.8c0,0.3,0,0.6,0.1,0.9
			c0.1,0.3,0.3,0.7,0.5,1c0.3,0.3,0.6,0.6,1.1,0.8c0.5,0.2,1.2,0.3,2,0.3v0.8h-14.4v-0.8c0.8,0,1.4-0.1,1.9-0.2
			c0.5-0.2,0.9-0.4,1.2-0.6c0.3-0.3,0.5-0.6,0.6-0.9s0.2-0.7,0.2-1.1V50.8c0-0.3-0.1-0.6-0.2-0.9c-0.1-0.3-0.3-0.6-0.6-0.9
			c-0.3-0.3-0.7-0.5-1.1-0.7c-0.5-0.2-1.1-0.3-1.9-0.3v-0.8h14.4c2,0,3.9,0.2,5.7,0.5c1.8,0.4,3.4,0.9,4.7,1.7
			c1.4,0.8,2.4,1.7,3.2,2.9c0.8,1.2,1.2,2.6,1.2,4.3c0,1.4-0.3,2.6-0.9,3.7c-0.6,1.1-1.3,2-2.3,2.7c-0.9,0.8-2,1.4-3.2,1.9
			c-1.2,0.5-2.4,0.9-3.7,1.2c0.5,0.9,1,1.8,1.6,2.7c0.6,0.9,1.2,1.7,1.8,2.6c0.6,0.8,1.3,1.6,1.9,2.3c0.7,0.7,1.3,1.3,1.9,1.8
			c0.6,0.5,1.2,0.9,1.7,1.2c0.5,0.3,1,0.4,1.4,0.4c0.2,0,0.5,0,0.8-0.1c0.4,0,0.7-0.2,1.1-0.3L174.9,77.6z"/>
		<path class="st1" d="M185.7,78.5c-1.3,0-2.4,0-3.2-0.1c-0.8-0.1-1.5-0.1-2.1-0.2c-0.5-0.1-1-0.1-1.3-0.2c-0.4-0.1-0.7-0.1-1.1-0.1
			c0.2-0.6,0.3-1.2,0.3-1.8c0.1-0.5,0.1-1,0.1-1.5c0-0.6-0.1-1.2-0.2-1.8c-0.1-0.5-0.3-1.1-0.4-1.7l1,0c0.4,0.9,1,1.7,1.8,2.5
			c0.8,0.7,1.7,1.4,2.7,1.9c1,0.6,2,1,3.1,1.3c1.1,0.3,2.1,0.5,3.1,0.5c1.2,0,2.2-0.2,3.2-0.6c1-0.4,1.8-0.9,2.5-1.6
			c0.7-0.7,1.2-1.4,1.6-2.3c0.4-0.8,0.6-1.7,0.6-2.6c0-1-0.2-1.8-0.7-2.4c-0.4-0.6-1.1-1.1-1.8-1.5c-0.7-0.4-1.6-0.7-2.6-0.8
			c-1-0.2-2-0.3-3-0.4c-0.8-0.1-1.6-0.2-2.5-0.3c-0.9-0.1-1.8-0.3-2.7-0.5c-0.9-0.2-1.8-0.5-2.6-0.9c-0.8-0.4-1.6-0.9-2.2-1.4
			c-0.6-0.6-1.2-1.3-1.5-2.1c-0.4-0.8-0.6-1.9-0.6-3c0-1.4,0.3-2.6,0.8-3.6c0.5-1,1.3-1.9,2.2-2.6c0.9-0.7,1.9-1.3,3.1-1.8
			c1.2-0.5,2.3-0.9,3.6-1.1c1.2-0.3,2.4-0.5,3.6-0.6c1.2-0.1,2.3-0.2,3.3-0.2c0.9,0,1.7,0,2.5,0.1c0.8,0.1,1.5,0.1,2.1,0.2
			c0.7,0.1,1.2,0.1,1.8,0.2c0.5,0.1,1.1,0.1,1.5,0.1c-0.2,0.7-0.3,1.3-0.3,1.8c-0.1,0.5-0.1,1-0.1,1.5c0,0.6,0,1.2,0.2,1.7
			c0.1,0.6,0.2,1.1,0.4,1.8l-1,0c-0.2-0.5-0.4-1-0.6-1.6c-0.2-0.5-0.4-1-0.7-1.4s-0.6-0.9-1-1.2c-0.4-0.4-0.9-0.7-1.6-1
			c-0.6-0.3-1.4-0.5-2.3-0.6c-0.9-0.2-2-0.2-3.4-0.2c-0.9,0-1.7,0.2-2.6,0.5c-0.8,0.3-1.6,0.7-2.2,1.3c-0.7,0.6-1.2,1.2-1.6,2
			s-0.6,1.6-0.6,2.5c0,0.8,0.1,1.5,0.4,2s0.7,1,1.1,1.4c0.5,0.4,1,0.7,1.6,0.9c0.6,0.2,1.2,0.4,1.8,0.6c0.6,0.1,1.2,0.2,1.7,0.3
			c0.5,0.1,1,0.1,1.3,0.1c0.7,0.1,1.4,0.1,2.3,0.3c0.9,0.1,1.7,0.3,2.6,0.5c0.9,0.2,1.8,0.5,2.6,0.9c0.8,0.4,1.6,0.9,2.3,1.5
			c0.7,0.6,1.2,1.4,1.6,2.2c0.4,0.9,0.6,1.9,0.6,3.1c0,1.6-0.3,2.9-0.8,4c-0.5,1.1-1.3,2.1-2.2,2.8c-0.9,0.8-2,1.4-3.2,1.9
			c-1.2,0.5-2.5,0.8-3.9,1.1c-1.4,0.3-2.8,0.4-4.2,0.5C188.5,78.4,187.1,78.5,185.7,78.5z"/>
		<path class="st1" d="M208,62.5c0-1.2,0.2-2.4,0.5-3.7c0.3-1.2,0.8-2.5,1.5-3.6c0.6-1.2,1.4-2.3,2.4-3.3c0.9-1,2-1.9,3.3-2.7
			c1.2-0.8,2.6-1.4,4.1-1.8c1.5-0.5,3.2-0.7,5-0.7c1.8,0,3.5,0.2,5.1,0.6c1.5,0.4,3,1,4.2,1.7c1.2,0.7,2.3,1.6,3.3,2.6
			c0.9,1,1.7,2.1,2.4,3.2c0.6,1.2,1.1,2.4,1.4,3.7c0.3,1.3,0.5,2.6,0.5,3.9c0,1.3-0.2,2.5-0.5,3.8c-0.3,1.3-0.8,2.5-1.4,3.7
			s-1.4,2.3-2.4,3.4c-1,1.1-2.1,2-3.3,2.8c-1.2,0.8-2.6,1.4-4.2,1.9s-3.2,0.7-5.1,0.7c-1.8,0-3.5-0.2-5-0.7
			c-1.5-0.4-2.9-1.1-4.1-1.9c-1.2-0.8-2.3-1.7-3.3-2.8c-0.9-1.1-1.7-2.2-2.4-3.4c-0.6-1.2-1.1-2.4-1.4-3.7
			C208.2,65.1,208,63.8,208,62.5z M215.4,62.5c0,1.2,0.1,2.4,0.2,3.6c0.1,1.2,0.4,2.3,0.7,3.4c0.3,1.1,0.7,2.1,1.2,3
			c0.5,0.9,1.1,1.7,1.7,2.4c0.7,0.7,1.5,1.2,2.4,1.6c0.9,0.4,1.9,0.6,3.1,0.6c1.1,0,2.2-0.2,3.1-0.6c0.9-0.4,1.8-1,2.5-1.7
			c0.7-0.7,1.3-1.5,1.8-2.5c0.5-0.9,0.9-1.9,1.3-3c0.3-1.1,0.6-2.2,0.8-3.3c0.2-1.1,0.3-2.3,0.3-3.4c0-1.1-0.1-2.3-0.2-3.4
			c-0.1-1.1-0.4-2.2-0.7-3.3c-0.3-1.1-0.7-2-1.2-2.9c-0.5-0.9-1.1-1.7-1.8-2.4c-0.7-0.7-1.5-1.2-2.4-1.6c-0.9-0.4-2-0.6-3.1-0.6
			c-1.1,0-2.2,0.2-3.1,0.5c-0.9,0.3-1.7,0.8-2.4,1.5c-0.7,0.6-1.3,1.4-1.8,2.2c-0.5,0.9-0.9,1.8-1.3,2.9c-0.3,1-0.6,2.2-0.7,3.3
			C215.5,60,215.4,61.2,215.4,62.5z"/>
		<path class="st1" d="M242.6,47.2h10.8l16.2,24.9V50.8c0-0.3-0.1-0.6-0.2-0.9c-0.1-0.3-0.3-0.6-0.6-0.9c-0.3-0.3-0.7-0.5-1.1-0.7
			c-0.5-0.2-1.1-0.3-1.9-0.3v-0.8h9.5V48c-0.8,0-1.4,0.1-1.9,0.2c-0.5,0.2-0.9,0.4-1.1,0.7c-0.3,0.3-0.5,0.6-0.6,1
			c-0.1,0.4-0.1,0.7-0.1,1.1v32.1l0.1,2.5l-23.4-33.4v21.9c0,0.3,0,0.6,0.1,0.9c0.1,0.3,0.3,0.7,0.5,1c0.3,0.3,0.6,0.6,1.1,0.8
			c0.5,0.2,1.1,0.3,2,0.3v0.8h-9.5v-0.8c0.8,0,1.4-0.1,1.9-0.2c0.5-0.2,0.9-0.4,1.2-0.7c0.3-0.3,0.5-0.6,0.6-0.9
			c0.1-0.4,0.2-0.7,0.2-1.1V49.9c-0.3-0.4-0.7-0.7-0.9-0.9c-0.3-0.2-0.6-0.4-0.9-0.6c-0.3-0.1-0.6-0.3-0.9-0.3
			c-0.3-0.1-0.7-0.1-1.1-0.1V47.2z"/>
	</g>
</g>
</svg>
